HIERARCHY
ROOT joint_Root
{
	OFFSET 0.0 0.0 0.0
	CHANNELS 6 Xposition Yposition Zposition Zrotation Xrotation Yrotation 
	JOINT Hips
	{
		OFFSET -0.726466 93.3139 -2.00062
		CHANNELS 6 Xposition Yposition Zposition Zrotation Xrotation Yrotation 
		JOINT Spine
		{
			OFFSET 15.7357 0.0 0.0
			CHANNELS 6 Xposition Yposition Zposition Zrotation Xrotation Yrotation 
			JOINT Chest
			{
				OFFSET 8.98455 -0.406207 0.0
				CHANNELS 6 Xposition Yposition Zposition Zrotation Xrotation Yrotation 
				JOINT Neck
				{
					OFFSET 16.3773 0.0 0.0
					CHANNELS 6 Xposition Yposition Zposition Zrotation Xrotation Yrotation 
					JOINT Head
					{
						OFFSET 6.45672 0.0 0.0
						CHANNELS 6 Xposition Yposition Zposition Zrotation Xrotation Yrotation 
						End Site
						{
							OFFSET 0.0 0.0 0.0
						}
					}
				}
				JOINT Shoulder_L
				{
					OFFSET 12.9942 -0.242716 4.98039
					CHANNELS 6 Xposition Yposition Zposition Zrotation Xrotation Yrotation 
					JOINT UpperArm_L
					{
						OFFSET 5.34809 0.0 0.0
						CHANNELS 6 Xposition Yposition Zposition Zrotation Xrotation Yrotation 
						JOINT LowerArm_L
						{
							OFFSET 24.3286 1.87007e-05 0.0
							CHANNELS 6 Xposition Yposition Zposition Zrotation Xrotation Yrotation 
							JOINT Hand_L
							{
								OFFSET 22.2916 0.0 0.0
								CHANNELS 6 Xposition Yposition Zposition Zrotation Xrotation Yrotation 
								End Site
								{
									OFFSET 0.0 0.0 0.0
								}
							}
						}
					}
				}
				JOINT Shoulder_R
				{
					OFFSET 12.9945 -0.242716 -4.98039
					CHANNELS 6 Xposition Yposition Zposition Zrotation Xrotation Yrotation 
					JOINT UpperArm_R
					{
						OFFSET -5.34813 0.0 0.0
						CHANNELS 6 Xposition Yposition Zposition Zrotation Xrotation Yrotation 
						JOINT LowerArm_R
						{
							OFFSET -24.3289 0.000322201 0.0
							CHANNELS 6 Xposition Yposition Zposition Zrotation Xrotation Yrotation 
							JOINT Hand_R
							{
								OFFSET -22.2915 -0.000108084 0.0
								CHANNELS 6 Xposition Yposition Zposition Zrotation Xrotation Yrotation 
								End Site
								{
									OFFSET 0.0 0.0 0.0
								}
							}
						}
					}
				}
			}
		}
		JOINT UpperLeg_L
		{
			OFFSET -2.19248 -6.46944 0.0
			CHANNELS 6 Xposition Yposition Zposition Zrotation Xrotation Yrotation 
			JOINT LowerLeg_L
			{
				OFFSET 39.0811 0.0 -1.23785e-05
				CHANNELS 6 Xposition Yposition Zposition Zrotation Xrotation Yrotation 
				JOINT Foot_L
				{
					OFFSET 40.9854 0.0 -1.26872e-05
					CHANNELS 6 Xposition Yposition Zposition Zrotation Xrotation Yrotation 
					JOINT Toes_L
					{
						OFFSET 11.7543 0.0 0.0
						CHANNELS 6 Xposition Yposition Zposition Zrotation Xrotation Yrotation 
						End Site
						{
							OFFSET 0.0 0.0 0.0
						}
					}
				}
			}
		}
		JOINT UpperLeg_R
		{
			OFFSET -2.19251 6.46944 0.0
			CHANNELS 6 Xposition Yposition Zposition Zrotation Xrotation Yrotation 
			JOINT LowerLeg_R
			{
				OFFSET -39.0811 -0.00228153 -0.0401928
				CHANNELS 6 Xposition Yposition Zposition Zrotation Xrotation Yrotation 
				JOINT Foot_R
				{
					OFFSET -40.9854 0.0 0.0
					CHANNELS 6 Xposition Yposition Zposition Zrotation Xrotation Yrotation 
					JOINT Toes_R
					{
						OFFSET -11.7543 0.0 0.0
						CHANNELS 6 Xposition Yposition Zposition Zrotation Xrotation Yrotation 
						End Site
						{
							OFFSET 0.0 0.0 0.0
						}
					}
				}
			}
		}
	}
}
MOTION
Frames:	5
Frame Time:	0.0333333
0.000000 0.000000 0.000000 0.000000 0.000000 -0.000000 -2.124720 82.554100 400.240000 -87.906800 -4.125850 171.977000 15.735700 0.000005 -0.000001 74.124200 81.432500 -74.181400 8.984550 -0.406207 -0.000000 8.734610 -4.664500 0.242098 16.377300 -0.000001 -0.000001 -1.026470 -2.721800 0.031484 6.456720 -0.000001 -0.000000 -5.633920 0.560470 4.134440 12.994200 -0.242716 4.980390 -88.812000 -3.569460 -71.573300 5.348090 -0.000007 -0.000001 -67.192100 30.981600 -30.350600 24.328600 0.000019 0.000005 3.133280 -0.657386 -101.880000 22.291600 -0.000001 0.000005 9.953090 5.677080 -18.772200 12.994500 -0.242716 -4.980390 87.740200 5.046590 -65.836500 -5.348130 -0.000001 -0.000004 -69.230700 37.373400 10.907100 -24.328900 0.000322 -0.000009 -10.698700 -2.306790 -77.976100 -22.291500 -0.000108 -0.000004 16.411000 5.531780 -7.876860 -2.192480 -6.469440 -0.000000 178.577000 -4.620000 -15.347800 39.081100 -0.000007 -0.000012 -0.746808 0.616045 50.482900 40.985400 -0.000006 -0.000013 4.496340 -1.550990 -93.826900 11.754300 -0.000000 0.000003 -0.000026 -0.000323 -16.590200 -2.192510 6.469440 -0.000001 -176.411000 5.511210 140.626000 -39.081100 -0.002282 -0.040193 -0.337499 -0.092174 105.119000 -40.985400 0.000008 0.000006 9.508760 -12.428900 -49.200300 -11.754300 -0.000006 -0.000006 -0.027835 -0.207363 -25.063200
0.000000 0.000000 0.000000 0.000000 0.000000 -0.000000 -1.524580 84.711100 392.038000 -84.731500 -6.396320 172.033000 15.735700 0.000005 -0.000001 65.073800 81.283200 -63.522800 8.984550 -0.406207 -0.000000 8.194940 -7.309350 3.626510 16.377300 -0.000001 -0.000001 -0.543445 -2.137950 -0.416276 6.456720 -0.000001 -0.000000 -5.038870 3.311910 3.074010 12.994200 -0.242716 4.980390 -88.150900 -5.811290 -72.314000 5.348090 -0.000007 -0.000001 -67.672200 31.194300 -32.701600 24.328600 0.000019 0.000005 -2.627670 0.844747 -107.748000 22.291600 -0.000001 0.000005 11.927300 5.672840 -17.849800 12.994500 -0.242716 -4.980390 88.450200 3.289920 -64.754500 -5.348130 -0.000001 -0.000004 -68.120000 39.304800 15.021900 -24.328900 0.000322 -0.000009 -4.654350 -0.520302 -83.663800 -22.291500 -0.000108 -0.000004 11.589800 5.530610 -7.826530 -2.192480 -6.469440 -0.000000 -176.820000 -3.466920 -3.929280 39.081100 -0.000007 -0.000012 0.072393 -0.095103 37.278200 40.985400 -0.000006 -0.000013 7.485430 -1.211940 -87.708100 11.754300 -0.000000 0.000003 -0.401897 -0.519385 -21.289300 -2.192510 6.469440 -0.000001 -171.517000 5.694830 136.414000 -39.081100 -0.002282 -0.040193 -0.238684 -0.034894 98.184300 -40.985400 0.000008 0.000006 9.387080 -15.480200 -54.720500 -11.754300 -0.000006 -0.000006 -0.024963 -0.193373 -24.484300
0.000000 0.000000 0.000000 0.000000 0.000000 -0.000000 -1.037810 87.635800 383.875000 -82.159900 -8.389180 170.449000 15.735700 0.000005 -0.000001 56.543100 81.585000 -53.565500 8.984550 -0.406207 -0.000000 6.591160 -9.281450 6.494610 16.377300 -0.000001 -0.000001 -0.459323 -1.901320 -0.469075 6.456720 -0.000001 -0.000000 -4.159040 5.002740 2.457790 12.994200 -0.242716 4.980390 -87.732800 -7.245290 -72.572000 5.348090 -0.000007 -0.000001 -66.701900 32.254000 -33.484200 24.328600 0.000019 0.000005 -3.942620 1.565260 -111.623000 22.291600 -0.000001 0.000005 11.599400 5.666960 -16.911900 12.994500 -0.242716 -4.980390 89.207000 1.595780 -63.565300 -5.348130 -0.000001 -0.000004 -68.415900 40.203100 17.887600 -24.328900 0.000322 -0.000009 -2.344270 -0.078359 -88.077500 -22.291500 -0.000108 -0.000004 7.702010 5.527690 -7.684150 -2.192480 -6.469440 -0.000000 -172.645000 -1.927920 0.603589 39.081100 -0.000007 -0.000012 0.019076 -0.033179 29.895900 40.985400 -0.000006 -0.000013 5.447970 1.564080 -69.559600 11.754300 -0.000000 0.000003 -0.115231 -0.480885 -36.728500 -2.192510 6.469440 -0.000001 -167.782000 5.263230 133.570000 -39.081100 -0.002282 -0.040193 -0.103553 0.008729 85.286500 -40.985400 0.000008 0.000006 8.563430 -15.116200 -58.879800 -11.754300 -0.000006 -0.000006 -0.024297 -0.190025 -24.345900
0.000000 0.000000 0.000000 0.000000 0.000000 -0.000000 -0.635647 90.471700 375.842000 -81.626500 -9.039960 169.353000 15.735700 0.000005 -0.000001 51.700500 81.830100 -48.144900 8.984550 -0.406207 -0.000000 5.452330 -10.176800 7.603930 16.377300 -0.000001 -0.000001 -0.545123 -1.757200 -0.329635 6.456720 -0.000001 -0.000000 -4.143830 5.589580 2.265270 12.994200 -0.242716 4.980390 -87.376700 -8.466410 -72.713900 5.348090 -0.000007 -0.000001 -66.401000 33.636700 -32.663100 24.328600 0.000019 0.000005 -1.870090 0.817417 -113.610000 22.291600 -0.000001 0.000005 9.231010 5.653390 -15.300800 12.994500 -0.242716 -4.980390 89.931000 0.133900 -62.686800 -5.348130 -0.000001 -0.000004 -70.151300 39.919500 19.833900 -24.328900 0.000322 -0.000009 -3.375790 0.071630 -91.203400 -22.291500 -0.000108 -0.000004 6.979690 5.511550 -7.005670 -2.192480 -6.469440 -0.000000 -168.959000 -7.310230 3.388330 39.081100 -0.000007 -0.000012 0.014280 -0.030349 25.198300 40.985400 -0.000006 -0.000013 2.691460 9.012970 -49.536000 11.754300 -0.000000 0.000003 -0.213655 -0.667328 -45.284100 -2.192510 6.469440 -0.000001 -166.870000 4.404190 134.324000 -39.081100 -0.002282 -0.040193 -0.015236 0.007402 68.054700 -40.985400 0.000008 0.000006 6.426870 -11.468200 -62.658500 -11.754300 -0.000006 -0.000006 -0.023412 -0.185502 -24.159100
0.000000 0.000000 0.000000 0.000000 0.000000 -0.000000 -0.694437 92.142900 367.547000 -83.271300 -7.752630 169.867000 15.735700 0.000005 -0.000001 52.269000 81.870400 -49.149500 8.984550 -0.406207 -0.000000 5.439500 -9.991650 6.720410 16.377300 -0.000001 -0.000001 -0.716903 -1.526130 -0.077731 6.456720 -0.000001 -0.000000 -4.979160 5.468810 2.323540 12.994200 -0.242716 4.980390 -87.047600 -9.701630 -72.983000 5.348090 -0.000007 -0.000001 -67.530400 35.185000 -29.996500 24.328600 0.000019 0.000005 -0.795548 0.359888 -114.338000 22.291600 -0.000001 0.000005 8.388670 5.636360 -13.833800 12.994500 -0.242716 -4.980390 90.574300 -1.089410 -62.204800 -5.348130 -0.000001 -0.000004 -71.989700 39.483200 20.208600 -24.328900 0.000322 -0.000009 -4.711870 0.311026 -93.759800 -22.291500 -0.000108 -0.000004 7.613950 5.483250 -5.878530 -2.192480 -6.469440 -0.000000 -168.439000 -9.367710 6.970880 39.081100 -0.000007 -0.000012 0.037039 -0.084593 23.646400 40.985400 -0.000006 -0.000013 -1.805700 11.145100 -35.602600 11.754300 -0.000000 0.000003 -0.029505 -0.215200 -25.391900 -2.192510 6.469440 -0.000001 -168.523000 4.651750 139.149000 -39.081100 -0.002282 -0.040193 0.003094 0.000138 48.824000 -40.985400 0.000008 0.000006 2.817070 -5.710900 -65.583400 -11.754300 -0.000006 -0.000006 -0.024162 -0.189338 -24.317500
